<svg xmlns="http://www.w3.org/2000/svg" xmlns:xlink="http://www.w3.org/1999/xlink" width="2048" zoomAndPan="magnify" viewBox="0 0 1536 525.000007" height="700" preserveAspectRatio="xMidYMid meet" version="1.0"><defs><g/></defs><g fill="#ffffff" fill-opacity="1"><g transform="translate(79.587823, 370.431056)"><g><path d="M 56.265625 0 L 7.09375 0 L 82.03125 -217.03125 L 141.15625 -217.03125 L 215.96875 0 L 166.796875 0 L 150.6875 -49.484375 L 72.375 -49.484375 Z M 84.03125 -85.3125 L 139.140625 -85.3125 L 112.4375 -167.4375 L 110.75 -167.4375 Z M 84.03125 -85.3125 "/></g></g></g><g fill="#ffffff" fill-opacity="1"><g transform="translate(302.766971, 370.431056)"><g><path d="M 18.859375 0 L 18.859375 -217.03125 L 104.484375 -217.03125 C 120.953125 -217.03125 134.976562 -213.90625 146.5625 -207.65625 C 158.144531 -201.40625 166.992188 -192.75 173.109375 -181.6875 C 179.222656 -170.632812 182.28125 -157.898438 182.28125 -143.484375 C 182.28125 -129.078125 179.171875 -116.378906 172.953125 -105.390625 C 166.734375 -94.398438 157.738281 -85.8125 145.96875 -79.625 C 134.207031 -73.445312 119.992188 -70.359375 103.328125 -70.359375 L 64.75 -70.359375 L 64.75 0 Z M 64.75 -107.140625 L 95.90625 -107.140625 C 109.050781 -107.140625 118.851562 -110.507812 125.3125 -117.25 C 131.78125 -124 135.015625 -132.742188 135.015625 -143.484375 C 135.015625 -154.296875 131.78125 -163.003906 125.3125 -169.609375 C 118.851562 -176.210938 108.976562 -179.515625 95.6875 -179.515625 L 64.75 -179.515625 Z M 64.75 -107.140625 "/></g></g></g><g fill="#ffffff" fill-opacity="1"><g transform="translate(496.061761, 370.431056)"><g><path d="M 10.59375 -179.203125 L 10.59375 -217.03125 L 188.84375 -217.03125 L 188.84375 -179.203125 L 122.40625 -179.203125 L 122.40625 0 L 77.046875 0 L 77.046875 -179.203125 Z M 10.59375 -179.203125 "/></g></g></g><g fill="#ffffff" fill-opacity="1"><g transform="translate(695.503, 370.431056)"><g><path d="M 64.75 -217.03125 L 64.75 0 L 18.859375 0 L 18.859375 -217.03125 Z M 64.75 -217.03125 "/></g></g></g><g fill="#ffffff" fill-opacity="1"><g transform="translate(779.221684, 370.431056)"><g><path d="M 210.359375 -141.046875 L 163.9375 -141.046875 C 162.175781 -152.984375 157.085938 -162.359375 148.671875 -169.171875 C 140.265625 -175.992188 129.773438 -179.40625 117.203125 -179.40625 C 100.390625 -179.40625 86.914062 -173.238281 76.78125 -160.90625 C 66.644531 -148.582031 61.578125 -131.117188 61.578125 -108.515625 C 61.578125 -85.335938 66.679688 -67.726562 76.890625 -55.6875 C 87.097656 -43.644531 100.429688 -37.625 116.890625 -37.625 C 129.109375 -37.625 139.457031 -40.816406 147.9375 -47.203125 C 156.414062 -53.597656 161.75 -62.59375 163.9375 -74.1875 L 210.359375 -73.96875 C 208.734375 -60.6875 204 -48.179688 196.15625 -36.453125 C 188.3125 -24.722656 177.660156 -15.21875 164.203125 -7.9375 C 150.742188 -0.664062 134.722656 2.96875 116.140625 2.96875 C 96.785156 2.96875 79.492188 -1.410156 64.265625 -10.171875 C 49.046875 -18.929688 37.035156 -31.613281 28.234375 -48.21875 C 19.441406 -64.820312 15.046875 -84.921875 15.046875 -108.515625 C 15.046875 -132.179688 19.492188 -152.316406 28.390625 -168.921875 C 37.296875 -185.523438 49.378906 -198.1875 64.640625 -206.90625 C 79.898438 -215.632812 97.066406 -220 116.140625 -220 C 132.890625 -220 147.992188 -216.90625 161.453125 -210.71875 C 174.910156 -204.539062 185.929688 -195.570312 194.515625 -183.8125 C 203.097656 -172.050781 208.378906 -157.796875 210.359375 -141.046875 Z M 210.359375 -141.046875 "/></g></g></g><g fill="#ffffff" fill-opacity="1"><g transform="translate(1003.672521, 370.431056)"><g><path d="M 218.3125 -108.515625 C 218.3125 -84.847656 213.84375 -64.710938 204.90625 -48.109375 C 195.96875 -31.503906 183.832031 -18.835938 168.5 -10.109375 C 153.164062 -1.390625 135.890625 2.96875 116.671875 2.96875 C 97.390625 2.96875 80.082031 -1.410156 64.75 -10.171875 C 49.414062 -18.929688 37.296875 -31.628906 28.390625 -48.265625 C 19.492188 -64.910156 15.046875 -84.992188 15.046875 -108.515625 C 15.046875 -132.179688 19.492188 -152.316406 28.390625 -168.921875 C 37.296875 -185.523438 49.414062 -198.1875 64.75 -206.90625 C 80.082031 -215.632812 97.390625 -220 116.671875 -220 C 135.890625 -220 153.164062 -215.632812 168.5 -206.90625 C 183.832031 -198.1875 195.96875 -185.523438 204.90625 -168.921875 C 213.84375 -152.316406 218.3125 -132.179688 218.3125 -108.515625 Z M 171.78125 -108.515625 C 171.78125 -131.546875 166.765625 -149.117188 156.734375 -161.234375 C 146.703125 -173.347656 133.347656 -179.40625 116.671875 -179.40625 C 100.003906 -179.40625 86.65625 -173.347656 76.625 -161.234375 C 66.59375 -149.117188 61.578125 -131.546875 61.578125 -108.515625 C 61.578125 -85.554688 66.59375 -68 76.625 -55.84375 C 86.65625 -43.695312 100.003906 -37.625 116.671875 -37.625 C 133.347656 -37.625 146.703125 -43.695312 156.734375 -55.84375 C 166.765625 -68 171.78125 -85.554688 171.78125 -108.515625 Z M 171.78125 -108.515625 "/></g></g></g><g fill="#ffffff" fill-opacity="1"><g transform="translate(1237.025138, 370.431056)"><g><path d="M 200.390625 -217.03125 L 200.390625 0 L 160.765625 0 L 66.34375 -136.59375 L 64.75 -136.59375 L 64.75 0 L 18.859375 0 L 18.859375 -217.03125 L 59.140625 -217.03125 L 152.8125 -80.546875 L 154.71875 -80.546875 L 154.71875 -217.03125 Z M 200.390625 -217.03125 "/></g></g></g></svg>