<svg xmlns="http://www.w3.org/2000/svg" xmlns:xlink="http://www.w3.org/1999/xlink" width="2048" zoomAndPan="magnify" viewBox="0 0 1536 525.000007" height="700" preserveAspectRatio="xMidYMid meet" version="1.0"><defs><g/></defs><g fill="#ffffff" fill-opacity="1"><g transform="translate(105.031118, 359.315599)"><g><path d="M 17.046875 0 L 17.046875 -196.15625 L 149.234375 -196.15625 L 149.234375 -161.96875 L 58.515625 -161.96875 L 58.515625 -115.21875 L 142.421875 -115.21875 L 142.421875 -81.03125 L 58.515625 -81.03125 L 58.515625 -34.1875 L 149.609375 -34.1875 L 149.609375 0 Z M 17.046875 0 "/></g></g></g><g fill="#ffffff" fill-opacity="1"><g transform="translate(270.257462, 359.315599)"><g><path d="M 190.125 -127.484375 L 148.171875 -127.484375 C 146.578125 -138.273438 141.976562 -146.75 134.375 -152.90625 C 126.78125 -159.070312 117.300781 -162.15625 105.9375 -162.15625 C 90.738281 -162.15625 78.554688 -156.582031 69.390625 -145.4375 C 60.234375 -134.300781 55.65625 -118.515625 55.65625 -98.078125 C 55.65625 -77.128906 60.265625 -61.210938 69.484375 -50.328125 C 78.710938 -39.441406 90.765625 -34 105.640625 -34 C 116.691406 -34 126.046875 -36.890625 133.703125 -42.671875 C 141.367188 -48.453125 146.191406 -56.578125 148.171875 -67.046875 L 190.125 -66.859375 C 188.65625 -54.847656 184.375 -43.539062 177.28125 -32.9375 C 170.195312 -22.34375 160.570312 -13.753906 148.40625 -7.171875 C 136.25 -0.597656 121.769531 2.6875 104.96875 2.6875 C 87.476562 2.6875 71.851562 -1.269531 58.09375 -9.1875 C 44.332031 -17.113281 33.472656 -28.578125 25.515625 -43.578125 C 17.566406 -58.585938 13.59375 -76.753906 13.59375 -98.078125 C 13.59375 -119.472656 17.613281 -137.671875 25.65625 -152.671875 C 33.707031 -167.679688 44.628906 -179.128906 58.421875 -187.015625 C 72.210938 -194.898438 87.726562 -198.84375 104.96875 -198.84375 C 120.101562 -198.84375 133.753906 -196.046875 145.921875 -190.453125 C 158.085938 -184.867188 168.046875 -176.757812 175.796875 -166.125 C 183.554688 -155.5 188.332031 -142.617188 190.125 -127.484375 Z M 190.125 -127.484375 "/></g></g></g><g fill="#ffffff" fill-opacity="1"><g transform="translate(473.126671, 359.315599)"><g><path d="M 197.3125 -98.078125 C 197.3125 -76.691406 193.269531 -58.492188 185.1875 -43.484375 C 177.113281 -28.472656 166.144531 -17.023438 152.28125 -9.140625 C 138.425781 -1.253906 122.816406 2.6875 105.453125 2.6875 C 88.023438 2.6875 72.378906 -1.269531 58.515625 -9.1875 C 44.660156 -17.113281 33.707031 -28.59375 25.65625 -43.625 C 17.613281 -58.664062 13.59375 -76.816406 13.59375 -98.078125 C 13.59375 -119.472656 17.613281 -137.671875 25.65625 -152.671875 C 33.707031 -167.679688 44.660156 -179.128906 58.515625 -187.015625 C 72.378906 -194.898438 88.023438 -198.84375 105.453125 -198.84375 C 122.816406 -198.84375 138.425781 -194.898438 152.28125 -187.015625 C 166.144531 -179.128906 177.113281 -167.679688 185.1875 -152.671875 C 193.269531 -137.671875 197.3125 -119.472656 197.3125 -98.078125 Z M 155.265625 -98.078125 C 155.265625 -118.890625 150.726562 -134.769531 141.65625 -145.71875 C 132.59375 -156.675781 120.523438 -162.15625 105.453125 -162.15625 C 90.378906 -162.15625 78.3125 -156.675781 69.25 -145.71875 C 60.1875 -134.769531 55.65625 -118.890625 55.65625 -98.078125 C 55.65625 -77.328125 60.1875 -61.457031 69.25 -50.46875 C 78.3125 -39.488281 90.378906 -34 105.453125 -34 C 120.523438 -34 132.59375 -39.488281 141.65625 -50.46875 C 150.726562 -61.457031 155.265625 -77.328125 155.265625 -98.078125 Z M 155.265625 -98.078125 "/></g></g></g><g fill="#ffffff" fill-opacity="1"><g transform="translate(684.041682, 359.315599)"><g><path d="M 181.125 -196.15625 L 181.125 0 L 145.296875 0 L 59.953125 -123.46875 L 58.515625 -123.46875 L 58.515625 0 L 17.046875 0 L 17.046875 -196.15625 L 53.453125 -196.15625 L 138.109375 -72.796875 L 139.84375 -72.796875 L 139.84375 -196.15625 Z M 181.125 -196.15625 "/></g></g></g><g fill="#ffffff" fill-opacity="1"><g transform="translate(882.313306, 359.315599)"><g><path d="M 123.46875 -139.75 C 122.695312 -147.46875 119.390625 -153.46875 113.546875 -157.75 C 107.703125 -162.03125 99.832031 -164.171875 89.9375 -164.171875 C 79.78125 -164.171875 71.988281 -162.09375 66.5625 -157.9375 C 61.132812 -153.789062 58.421875 -148.554688 58.421875 -142.234375 C 58.296875 -135.210938 61.3125 -129.894531 67.46875 -126.28125 C 73.632812 -122.675781 80.960938 -119.882812 89.453125 -117.90625 L 107.078125 -113.6875 C 118.441406 -111.132812 128.546875 -107.429688 137.390625 -102.578125 C 146.234375 -97.722656 153.191406 -91.476562 158.265625 -83.84375 C 163.347656 -76.21875 165.890625 -66.945312 165.890625 -56.03125 C 165.828125 -38.09375 159.109375 -23.804688 145.734375 -13.171875 C 132.359375 -2.535156 113.695312 2.78125 89.75 2.78125 C 65.925781 2.78125 46.925781 -2.644531 32.75 -13.5 C 18.582031 -24.351562 11.242188 -40.382812 10.734375 -61.59375 L 50.859375 -61.59375 C 51.554688 -51.757812 55.429688 -44.363281 62.484375 -39.40625 C 69.546875 -34.457031 78.472656 -31.984375 89.265625 -31.984375 C 99.804688 -31.984375 108.21875 -34.21875 114.5 -38.6875 C 120.789062 -43.164062 123.96875 -48.976562 124.03125 -56.125 C 123.96875 -62.769531 121.0625 -67.878906 115.3125 -71.453125 C 109.570312 -75.023438 101.367188 -78.085938 90.703125 -80.640625 L 69.34375 -86.015625 C 52.800781 -89.972656 39.738281 -96.257812 30.15625 -104.875 C 20.582031 -113.5 15.832031 -125.023438 15.90625 -139.453125 C 15.832031 -151.328125 19.003906 -161.71875 25.421875 -170.625 C 31.847656 -179.539062 40.675781 -186.472656 51.90625 -191.421875 C 63.144531 -196.367188 75.914062 -198.84375 90.21875 -198.84375 C 104.78125 -198.84375 117.503906 -196.351562 128.390625 -191.375 C 139.273438 -186.394531 147.75 -179.460938 153.8125 -170.578125 C 159.882812 -161.703125 163.015625 -151.425781 163.203125 -139.75 Z M 123.46875 -139.75 "/></g></g></g><g fill="#ffffff" fill-opacity="1"><g transform="translate(1058.937874, 359.315599)"><g><path d="M 5.5625 -196.15625 L 52.015625 -196.15625 L 96.734375 -111.6875 L 98.65625 -111.6875 L 143.390625 -196.15625 L 189.84375 -196.15625 L 118.296875 -69.34375 L 118.296875 0 L 77.109375 0 L 77.109375 -69.34375 Z M 5.5625 -196.15625 "/></g></g></g><g fill="#ffffff" fill-opacity="1"><g transform="translate(1254.335916, 359.315599)"><g><path d="M 123.46875 -139.75 C 122.695312 -147.46875 119.390625 -153.46875 113.546875 -157.75 C 107.703125 -162.03125 99.832031 -164.171875 89.9375 -164.171875 C 79.78125 -164.171875 71.988281 -162.09375 66.5625 -157.9375 C 61.132812 -153.789062 58.421875 -148.554688 58.421875 -142.234375 C 58.296875 -135.210938 61.3125 -129.894531 67.46875 -126.28125 C 73.632812 -122.675781 80.960938 -119.882812 89.453125 -117.90625 L 107.078125 -113.6875 C 118.441406 -111.132812 128.546875 -107.429688 137.390625 -102.578125 C 146.234375 -97.722656 153.191406 -91.476562 158.265625 -83.84375 C 163.347656 -76.21875 165.890625 -66.945312 165.890625 -56.03125 C 165.828125 -38.09375 159.109375 -23.804688 145.734375 -13.171875 C 132.359375 -2.535156 113.695312 2.78125 89.75 2.78125 C 65.925781 2.78125 46.925781 -2.644531 32.75 -13.5 C 18.582031 -24.351562 11.242188 -40.382812 10.734375 -61.59375 L 50.859375 -61.59375 C 51.554688 -51.757812 55.429688 -44.363281 62.484375 -39.40625 C 69.546875 -34.457031 78.472656 -31.984375 89.265625 -31.984375 C 99.804688 -31.984375 108.21875 -34.21875 114.5 -38.6875 C 120.789062 -43.164062 123.96875 -48.976562 124.03125 -56.125 C 123.96875 -62.769531 121.0625 -67.878906 115.3125 -71.453125 C 109.570312 -75.023438 101.367188 -78.085938 90.703125 -80.640625 L 69.34375 -86.015625 C 52.800781 -89.972656 39.738281 -96.257812 30.15625 -104.875 C 20.582031 -113.5 15.832031 -125.023438 15.90625 -139.453125 C 15.832031 -151.328125 19.003906 -161.71875 25.421875 -170.625 C 31.847656 -179.539062 40.675781 -186.472656 51.90625 -191.421875 C 63.144531 -196.367188 75.914062 -198.84375 90.21875 -198.84375 C 104.78125 -198.84375 117.503906 -196.351562 128.390625 -191.375 C 139.273438 -186.394531 147.75 -179.460938 153.8125 -170.578125 C 159.882812 -161.703125 163.015625 -151.425781 163.203125 -139.75 Z M 123.46875 -139.75 "/></g></g></g></svg>