<svg xmlns="http://www.w3.org/2000/svg" xmlns:xlink="http://www.w3.org/1999/xlink" width="2048" zoomAndPan="magnify" viewBox="0 0 1536 525.000007" height="700" preserveAspectRatio="xMidYMid meet" version="1.0"><defs><g/></defs><g fill="#ffffff" fill-opacity="1"><g transform="translate(7.624106, 214.840793)"><g><path d="M 137.296875 -123.890625 C 134.859375 -132.472656 130.34375 -139.191406 123.75 -144.046875 C 117.164062 -148.898438 108.898438 -151.328125 98.953125 -151.328125 C 84.953125 -151.328125 73.613281 -146.15625 64.9375 -135.8125 C 56.269531 -125.476562 51.9375 -110.78125 51.9375 -91.71875 C 51.9375 -72.582031 56.195312 -57.800781 64.71875 -47.375 C 73.238281 -36.945312 84.769531 -31.734375 99.3125 -31.734375 C 112.1875 -31.734375 122.300781 -35.082031 129.65625 -41.78125 C 137.019531 -48.488281 140.820312 -57.503906 141.0625 -68.828125 L 101.71875 -68.828125 L 101.71875 -97.96875 L 178.328125 -97.96875 L 178.328125 -74.90625 C 178.328125 -58.875 174.929688 -45.0625 168.140625 -33.46875 C 161.347656 -21.882812 152.003906 -12.992188 140.109375 -6.796875 C 128.222656 -0.597656 114.5625 2.5 99.125 2.5 C 81.96875 2.5 66.894531 -1.296875 53.90625 -8.890625 C 40.914062 -16.492188 30.796875 -27.3125 23.546875 -41.34375 C 16.304688 -55.375 12.6875 -72.046875 12.6875 -91.359375 C 12.6875 -111.140625 16.46875 -128.0625 24.03125 -142.125 C 31.601562 -156.1875 41.851562 -166.941406 54.78125 -174.390625 C 67.71875 -181.847656 82.234375 -185.578125 98.328125 -185.578125 C 112.148438 -185.578125 124.660156 -182.953125 135.859375 -177.703125 C 147.066406 -172.460938 156.242188 -165.207031 163.390625 -155.9375 C 170.546875 -146.664062 174.957031 -135.984375 176.625 -123.890625 Z M 137.296875 -123.890625 "/></g></g></g><g fill="#ffffff" fill-opacity="1"><g transform="translate(199.092232, 214.840793)"><g><path d="M 15.90625 0 L 15.90625 -183.0625 L 54.609375 -183.0625 L 54.609375 -31.90625 L 133.09375 -31.90625 L 133.09375 0 Z M 15.90625 0 "/></g></g></g><g fill="#ffffff" fill-opacity="1"><g transform="translate(341.933492, 214.840793)"><g><path d="M 184.140625 -91.53125 C 184.140625 -71.570312 180.367188 -54.585938 172.828125 -40.578125 C 165.296875 -26.578125 155.0625 -15.894531 142.125 -8.53125 C 129.195312 -1.175781 114.628906 2.5 98.421875 2.5 C 82.148438 2.5 67.546875 -1.191406 54.609375 -8.578125 C 41.679688 -15.972656 31.460938 -26.6875 23.953125 -40.71875 C 16.441406 -54.75 12.6875 -71.6875 12.6875 -91.53125 C 12.6875 -111.5 16.441406 -128.484375 23.953125 -142.484375 C 31.460938 -156.492188 41.679688 -167.175781 54.609375 -174.53125 C 67.546875 -181.894531 82.148438 -185.578125 98.421875 -185.578125 C 114.628906 -185.578125 129.195312 -181.894531 142.125 -174.53125 C 155.0625 -167.175781 165.296875 -156.492188 172.828125 -142.484375 C 180.367188 -128.484375 184.140625 -111.5 184.140625 -91.53125 Z M 144.90625 -91.53125 C 144.90625 -110.957031 140.671875 -125.78125 132.203125 -136 C 123.742188 -146.21875 112.484375 -151.328125 98.421875 -151.328125 C 84.359375 -151.328125 73.09375 -146.21875 64.625 -136 C 56.164062 -125.78125 51.9375 -110.957031 51.9375 -91.53125 C 51.9375 -72.164062 56.164062 -57.359375 64.625 -47.109375 C 73.09375 -36.859375 84.359375 -31.734375 98.421875 -31.734375 C 112.484375 -31.734375 123.742188 -36.859375 132.203125 -47.109375 C 140.671875 -57.359375 144.90625 -72.164062 144.90625 -91.53125 Z M 144.90625 -91.53125 "/></g></g></g><g fill="#ffffff" fill-opacity="1"><g transform="translate(538.764852, 214.840793)"><g><path d="M 15.90625 0 L 15.90625 -183.0625 L 89.203125 -183.0625 C 109.410156 -183.0625 124.59375 -178.664062 134.75 -169.875 C 144.914062 -161.09375 150 -149.847656 150 -136.140625 C 150 -125.347656 146.867188 -116.628906 140.609375 -109.984375 C 134.347656 -103.347656 126.453125 -98.957031 116.921875 -96.8125 L 116.921875 -95.015625 C 123.890625 -94.722656 130.425781 -92.757812 136.53125 -89.125 C 142.644531 -85.488281 147.609375 -80.421875 151.421875 -73.921875 C 155.234375 -67.429688 157.140625 -59.65625 157.140625 -50.59375 C 157.140625 -40.882812 154.738281 -32.210938 149.9375 -24.578125 C 145.144531 -16.953125 138.070312 -10.945312 128.71875 -6.5625 C 119.363281 -2.1875 107.832031 0 94.125 0 Z M 54.609375 -31.640625 L 86.171875 -31.640625 C 97.015625 -31.640625 104.894531 -33.722656 109.8125 -37.890625 C 114.726562 -42.066406 117.1875 -47.582031 117.1875 -54.4375 C 117.1875 -62.007812 114.488281 -68.207031 109.09375 -73.03125 C 103.707031 -77.851562 96.363281 -80.265625 87.0625 -80.265625 L 54.609375 -80.265625 Z M 54.609375 -106.46875 L 83.3125 -106.46875 C 91.238281 -106.46875 97.820312 -108.535156 103.0625 -112.671875 C 108.3125 -116.816406 110.9375 -122.492188 110.9375 -129.703125 C 110.9375 -136.316406 108.59375 -141.648438 103.90625 -145.703125 C 99.226562 -149.753906 92.601562 -151.78125 84.03125 -151.78125 L 54.609375 -151.78125 Z M 54.609375 -106.46875 "/></g></g></g><g fill="#ffffff" fill-opacity="1"><g transform="translate(705.115029, 214.840793)"><g><path d="M 47.46875 0 L 5.984375 0 L 69.1875 -183.0625 L 119.0625 -183.0625 L 182.171875 0 L 140.703125 0 L 127.109375 -41.75 L 61.046875 -41.75 Z M 70.890625 -71.953125 L 117.375 -71.953125 L 94.84375 -141.234375 L 93.40625 -141.234375 Z M 70.890625 -71.953125 "/></g></g></g><g fill="#ffffff" fill-opacity="1"><g transform="translate(893.3652, 214.840793)"><g><path d="M 15.90625 0 L 15.90625 -183.0625 L 54.609375 -183.0625 L 54.609375 -31.90625 L 133.09375 -31.90625 L 133.09375 0 Z M 15.90625 0 "/></g></g></g><g fill="#ffffff" fill-opacity="1"><g transform="translate(1036.20643, 214.840793)"><g/></g></g><g fill="#ffffff" fill-opacity="1"><g transform="translate(1094.576479, 214.840793)"><g><path d="M 15.90625 0 L 15.90625 -183.0625 L 89.203125 -183.0625 C 109.410156 -183.0625 124.59375 -178.664062 134.75 -169.875 C 144.914062 -161.09375 150 -149.847656 150 -136.140625 C 150 -125.347656 146.867188 -116.628906 140.609375 -109.984375 C 134.347656 -103.347656 126.453125 -98.957031 116.921875 -96.8125 L 116.921875 -95.015625 C 123.890625 -94.722656 130.425781 -92.757812 136.53125 -89.125 C 142.644531 -85.488281 147.609375 -80.421875 151.421875 -73.921875 C 155.234375 -67.429688 157.140625 -59.65625 157.140625 -50.59375 C 157.140625 -40.882812 154.738281 -32.210938 149.9375 -24.578125 C 145.144531 -16.953125 138.070312 -10.945312 128.71875 -6.5625 C 119.363281 -2.1875 107.832031 0 94.125 0 Z M 54.609375 -31.640625 L 86.171875 -31.640625 C 97.015625 -31.640625 104.894531 -33.722656 109.8125 -37.890625 C 114.726562 -42.066406 117.1875 -47.582031 117.1875 -54.4375 C 117.1875 -62.007812 114.488281 -68.207031 109.09375 -73.03125 C 103.707031 -77.851562 96.363281 -80.265625 87.0625 -80.265625 L 54.609375 -80.265625 Z M 54.609375 -106.46875 L 83.3125 -106.46875 C 91.238281 -106.46875 97.820312 -108.535156 103.0625 -112.671875 C 108.3125 -116.816406 110.9375 -122.492188 110.9375 -129.703125 C 110.9375 -136.316406 108.59375 -141.648438 103.90625 -145.703125 C 99.226562 -149.753906 92.601562 -151.78125 84.03125 -151.78125 L 54.609375 -151.78125 Z M 54.609375 -106.46875 "/></g></g></g><g fill="#ffffff" fill-opacity="1"><g transform="translate(1260.926702, 214.840793)"><g><path d="M 54.609375 -183.0625 L 54.609375 0 L 15.90625 0 L 15.90625 -183.0625 Z M 54.609375 -183.0625 "/></g></g></g><g fill="#ffffff" fill-opacity="1"><g transform="translate(1331.542865, 214.840793)"><g><path d="M 184.140625 -91.53125 C 184.140625 -71.570312 180.367188 -54.585938 172.828125 -40.578125 C 165.296875 -26.578125 155.0625 -15.894531 142.125 -8.53125 C 129.195312 -1.175781 114.628906 2.5 98.421875 2.5 C 82.148438 2.5 67.546875 -1.191406 54.609375 -8.578125 C 41.679688 -15.972656 31.460938 -26.6875 23.953125 -40.71875 C 16.441406 -54.75 12.6875 -71.6875 12.6875 -91.53125 C 12.6875 -111.5 16.441406 -128.484375 23.953125 -142.484375 C 31.460938 -156.492188 41.679688 -167.175781 54.609375 -174.53125 C 67.546875 -181.894531 82.148438 -185.578125 98.421875 -185.578125 C 114.628906 -185.578125 129.195312 -181.894531 142.125 -174.53125 C 155.0625 -167.175781 165.296875 -156.492188 172.828125 -142.484375 C 180.367188 -128.484375 184.140625 -111.5 184.140625 -91.53125 Z M 144.90625 -91.53125 C 144.90625 -110.957031 140.671875 -125.78125 132.203125 -136 C 123.742188 -146.21875 112.484375 -151.328125 98.421875 -151.328125 C 84.359375 -151.328125 73.09375 -146.21875 64.625 -136 C 56.164062 -125.78125 51.9375 -110.957031 51.9375 -91.53125 C 51.9375 -72.164062 56.164062 -57.359375 64.625 -47.109375 C 73.09375 -36.859375 84.359375 -31.734375 98.421875 -31.734375 C 112.484375 -31.734375 123.742188 -36.859375 132.203125 -47.109375 C 140.671875 -57.359375 144.90625 -72.164062 144.90625 -91.53125 Z M 144.90625 -91.53125 "/></g></g></g><g fill="#ffffff" fill-opacity="1"><g transform="translate(205.434822, 491.064645)"><g><path d="M 15.90625 0 L 15.90625 -183.0625 L 88.140625 -183.0625 C 102.023438 -183.0625 113.851562 -180.425781 123.625 -175.15625 C 133.394531 -169.882812 140.859375 -162.582031 146.015625 -153.25 C 151.171875 -143.925781 153.75 -133.1875 153.75 -121.03125 C 153.75 -108.875 151.125 -98.160156 145.875 -88.890625 C 140.632812 -79.628906 133.050781 -72.390625 123.125 -67.171875 C 113.207031 -61.960938 101.21875 -59.359375 87.15625 -59.359375 L 54.609375 -59.359375 L 54.609375 0 Z M 54.609375 -90.375 L 80.890625 -90.375 C 91.972656 -90.375 100.238281 -93.21875 105.6875 -98.90625 C 111.144531 -104.601562 113.875 -111.976562 113.875 -121.03125 C 113.875 -130.144531 111.144531 -137.488281 105.6875 -143.0625 C 100.238281 -148.632812 91.914062 -151.421875 80.71875 -151.421875 L 54.609375 -151.421875 Z M 54.609375 -90.375 "/></g></g></g><g fill="#ffffff" fill-opacity="1"><g transform="translate(368.477717, 491.064645)"><g><path d="M 15.90625 0 L 15.90625 -183.0625 L 54.609375 -183.0625 L 54.609375 -107.53125 L 133.1875 -107.53125 L 133.1875 -183.0625 L 171.8125 -183.0625 L 171.8125 0 L 133.1875 0 L 133.1875 -75.625 L 54.609375 -75.625 L 54.609375 0 Z M 15.90625 0 "/></g></g></g><g fill="#ffffff" fill-opacity="1"><g transform="translate(556.280921, 491.064645)"><g><path d="M 47.46875 0 L 5.984375 0 L 69.1875 -183.0625 L 119.0625 -183.0625 L 182.171875 0 L 140.703125 0 L 127.109375 -41.75 L 61.046875 -41.75 Z M 70.890625 -71.953125 L 117.375 -71.953125 L 94.84375 -141.234375 L 93.40625 -141.234375 Z M 70.890625 -71.953125 "/></g></g></g><g fill="#ffffff" fill-opacity="1"><g transform="translate(744.531046, 491.064645)"><g><path d="M 15.90625 0 L 15.90625 -183.0625 L 88.140625 -183.0625 C 108.929688 -183.0625 125.0625 -177.640625 136.53125 -166.796875 C 148.007812 -155.953125 153.75 -141.441406 153.75 -123.265625 C 153.75 -110.753906 150.960938 -100.054688 145.390625 -91.171875 C 139.816406 -82.296875 131.816406 -75.625 121.390625 -71.15625 L 160.28125 0 L 117.546875 0 L 82.859375 -64.890625 L 54.609375 -64.890625 L 54.609375 0 Z M 54.609375 -96 L 80.890625 -96 C 102.878906 -96 113.875 -105.085938 113.875 -123.265625 C 113.875 -142.035156 102.820312 -151.421875 80.71875 -151.421875 L 54.609375 -151.421875 Z M 54.609375 -96 "/></g></g></g><g fill="#ffffff" fill-opacity="1"><g transform="translate(909.719205, 491.064645)"><g><path d="M 15.90625 -183.0625 L 63.640625 -183.0625 L 114.0625 -60.0625 L 116.203125 -60.0625 L 166.625 -183.0625 L 214.359375 -183.0625 L 214.359375 0 L 176.8125 0 L 176.8125 -119.15625 L 175.296875 -119.15625 L 127.921875 -0.890625 L 102.34375 -0.890625 L 54.96875 -119.609375 L 53.453125 -119.609375 L 53.453125 0 L 15.90625 0 Z M 15.90625 -183.0625 "/></g></g></g><g fill="#ffffff" fill-opacity="1"><g transform="translate(1142.305579, 491.064645)"><g><path d="M 47.46875 0 L 5.984375 0 L 69.1875 -183.0625 L 119.0625 -183.0625 L 182.171875 0 L 140.703125 0 L 127.109375 -41.75 L 61.046875 -41.75 Z M 70.890625 -71.953125 L 117.375 -71.953125 L 94.84375 -141.234375 L 93.40625 -141.234375 Z M 70.890625 -71.953125 "/></g></g></g></svg>