<svg xmlns="http://www.w3.org/2000/svg" xmlns:xlink="http://www.w3.org/1999/xlink" width="2048" zoomAndPan="magnify" viewBox="0 0 1536 525.000007" height="700" preserveAspectRatio="xMidYMid meet" version="1.0"><defs><g/></defs><g fill="#ffffff" fill-opacity="1"><g transform="translate(29.05204, 340.132334)"><g><path d="M 76.578125 -157.15625 L 109.421875 -157.15625 L 109.421875 -47.578125 C 109.421875 -37.453125 107.15625 -28.664062 102.625 -21.21875 C 98.101562 -13.769531 91.828125 -8.007812 83.796875 -3.9375 C 75.765625 0.125 66.425781 2.15625 55.78125 2.15625 C 46.320312 2.15625 37.742188 0.46875 30.046875 -2.90625 C 22.347656 -6.289062 16.242188 -11.410156 11.734375 -18.265625 C 7.234375 -25.117188 5.007812 -33.765625 5.0625 -44.203125 L 38.140625 -44.203125 C 38.242188 -37.960938 40.046875 -33.113281 43.546875 -29.65625 C 47.054688 -26.207031 51.703125 -24.484375 57.484375 -24.484375 C 70.117188 -24.484375 76.484375 -32.179688 76.578125 -47.578125 Z M 76.578125 -157.15625 "/></g></g></g><g fill="#ffffff" fill-opacity="1"><g transform="translate(152.214517, 340.132334)"><g><path d="M 110.96875 -157.15625 L 143.953125 -157.15625 L 143.953125 -53.25 C 143.953125 -41.382812 141.164062 -31.320312 135.59375 -23.0625 C 130.019531 -14.800781 122.332031 -8.519531 112.53125 -4.21875 C 102.738281 0.0703125 91.5 2.21875 78.8125 2.21875 C 66.125 2.21875 54.867188 0.0703125 45.046875 -4.21875 C 35.222656 -8.519531 27.535156 -14.800781 21.984375 -23.0625 C 16.429688 -31.320312 13.65625 -41.382812 13.65625 -53.25 L 13.65625 -157.15625 L 46.890625 -157.15625 L 46.890625 -54.40625 C 46.890625 -46.019531 49.921875 -39.421875 55.984375 -34.609375 C 62.046875 -29.796875 69.65625 -27.390625 78.8125 -27.390625 C 88.125 -27.390625 95.8125 -29.796875 101.875 -34.609375 C 107.9375 -39.421875 110.96875 -46.019531 110.96875 -54.40625 Z M 110.96875 -157.15625 "/></g></g></g><g fill="#ffffff" fill-opacity="1"><g transform="translate(309.831829, 340.132334)"><g><path d="M 98.921875 -111.953125 C 98.304688 -118.148438 95.65625 -122.960938 90.96875 -126.390625 C 86.289062 -129.816406 79.988281 -131.53125 72.0625 -131.53125 C 63.925781 -131.53125 57.679688 -129.863281 53.328125 -126.53125 C 48.984375 -123.207031 46.8125 -119.015625 46.8125 -113.953125 C 46.707031 -108.328125 49.125 -104.066406 54.0625 -101.171875 C 59 -98.285156 64.867188 -96.050781 71.671875 -94.46875 L 85.796875 -91.09375 C 94.898438 -89.039062 102.992188 -86.070312 110.078125 -82.1875 C 117.160156 -78.300781 122.734375 -73.300781 126.796875 -67.1875 C 130.867188 -61.070312 132.90625 -53.640625 132.90625 -44.890625 C 132.851562 -30.515625 127.46875 -19.066406 116.75 -10.546875 C 106.039062 -2.035156 91.09375 2.21875 71.90625 2.21875 C 52.820312 2.21875 37.597656 -2.125 26.234375 -10.8125 C 14.878906 -19.507812 9 -32.351562 8.59375 -49.34375 L 40.75 -49.34375 C 41.3125 -41.46875 44.414062 -35.546875 50.0625 -31.578125 C 55.71875 -27.609375 62.867188 -25.625 71.515625 -25.625 C 79.960938 -25.625 86.703125 -27.414062 91.734375 -31 C 96.773438 -34.582031 99.320312 -39.238281 99.375 -44.96875 C 99.320312 -50.289062 96.992188 -54.382812 92.390625 -57.25 C 87.785156 -60.113281 81.210938 -62.566406 72.671875 -64.609375 L 55.5625 -68.90625 C 42.3125 -72.082031 31.847656 -77.125 24.171875 -84.03125 C 16.492188 -90.9375 12.679688 -100.171875 12.734375 -111.734375 C 12.679688 -121.242188 15.226562 -129.566406 20.375 -136.703125 C 25.519531 -143.835938 32.59375 -149.390625 41.59375 -153.359375 C 50.59375 -157.328125 60.820312 -159.3125 72.28125 -159.3125 C 83.945312 -159.3125 94.140625 -157.316406 102.859375 -153.328125 C 111.585938 -149.335938 118.378906 -143.785156 123.234375 -136.671875 C 128.097656 -129.554688 130.609375 -121.316406 130.765625 -111.953125 Z M 98.921875 -111.953125 "/></g></g></g><g fill="#ffffff" fill-opacity="1"><g transform="translate(451.334429, 340.132334)"><g><path d="M 7.671875 -129.765625 L 7.671875 -157.15625 L 136.75 -157.15625 L 136.75 -129.765625 L 88.625 -129.765625 L 88.625 0 L 55.78125 0 L 55.78125 -129.765625 Z M 7.671875 -129.765625 "/></g></g></g><g fill="#ffffff" fill-opacity="1"><g transform="translate(595.752994, 340.132334)"><g/></g></g><g fill="#ffffff" fill-opacity="1"><g transform="translate(645.862091, 340.132334)"><g><path d="M 13.65625 0 L 13.65625 -157.15625 L 76.578125 -157.15625 C 93.921875 -157.15625 106.953125 -153.378906 115.671875 -145.828125 C 124.398438 -138.285156 128.765625 -128.632812 128.765625 -116.875 C 128.765625 -107.613281 126.078125 -100.128906 120.703125 -94.421875 C 115.335938 -88.722656 108.5625 -84.953125 100.375 -83.109375 L 100.375 -81.578125 C 106.351562 -81.316406 111.960938 -79.625 117.203125 -76.5 C 122.453125 -73.382812 126.710938 -69.035156 129.984375 -63.453125 C 133.265625 -57.878906 134.90625 -51.207031 134.90625 -43.4375 C 134.90625 -35.09375 132.84375 -27.644531 128.71875 -21.09375 C 124.601562 -14.550781 118.53125 -9.398438 110.5 -5.640625 C 102.46875 -1.878906 92.570312 0 80.8125 0 Z M 46.890625 -27.171875 L 73.96875 -27.171875 C 83.28125 -27.171875 90.046875 -28.957031 94.265625 -32.53125 C 98.492188 -36.113281 100.609375 -40.847656 100.609375 -46.734375 C 100.609375 -53.234375 98.289062 -58.550781 93.65625 -62.6875 C 89.03125 -66.832031 82.726562 -68.90625 74.75 -68.90625 L 46.890625 -68.90625 Z M 46.890625 -91.390625 L 71.515625 -91.390625 C 78.316406 -91.390625 83.96875 -93.164062 88.46875 -96.71875 C 92.976562 -100.28125 95.234375 -105.15625 95.234375 -111.34375 C 95.234375 -117.019531 93.222656 -121.597656 89.203125 -125.078125 C 85.191406 -128.554688 79.503906 -130.296875 72.140625 -130.296875 L 46.890625 -130.296875 Z M 46.890625 -91.390625 "/></g></g></g><g fill="#ffffff" fill-opacity="1"><g transform="translate(788.669193, 340.132334)"><g><path d="M 13.65625 0 L 13.65625 -157.15625 L 119.5625 -157.15625 L 119.5625 -129.765625 L 46.890625 -129.765625 L 46.890625 -92.3125 L 114.109375 -92.3125 L 114.109375 -64.921875 L 46.890625 -64.921875 L 46.890625 -27.390625 L 119.859375 -27.390625 L 119.859375 0 Z M 13.65625 0 "/></g></g></g><g fill="#ffffff" fill-opacity="1"><g transform="translate(921.040072, 340.132334)"><g/></g></g><g fill="#ffffff" fill-opacity="1"><g transform="translate(971.149214, 340.132334)"><g><path d="M 13.65625 0 L 13.65625 -157.15625 L 117.71875 -157.15625 L 117.71875 -129.765625 L 46.890625 -129.765625 L 46.890625 -92.3125 L 110.8125 -92.3125 L 110.8125 -64.921875 L 46.890625 -64.921875 L 46.890625 0 Z M 13.65625 0 "/></g></g></g><g fill="#ffffff" fill-opacity="1"><g transform="translate(1097.534607, 340.132334)"><g><path d="M 13.65625 0 L 13.65625 -157.15625 L 46.890625 -157.15625 L 46.890625 -27.390625 L 114.265625 -27.390625 L 114.265625 0 Z M 13.65625 0 "/></g></g></g><g fill="#ffffff" fill-opacity="1"><g transform="translate(1220.159949, 340.132334)"><g><path d="M 13.65625 0 L 13.65625 -157.15625 L 119.5625 -157.15625 L 119.5625 -129.765625 L 46.890625 -129.765625 L 46.890625 -92.3125 L 114.109375 -92.3125 L 114.109375 -64.921875 L 46.890625 -64.921875 L 46.890625 -27.390625 L 119.859375 -27.390625 L 119.859375 0 Z M 13.65625 0 "/></g></g></g><g fill="#ffffff" fill-opacity="1"><g transform="translate(1352.530827, 340.132334)"><g><path d="M 44.8125 -157.15625 L 76.5 -103.59375 L 77.734375 -103.59375 L 109.578125 -157.15625 L 147.109375 -157.15625 L 99.140625 -78.578125 L 148.1875 0 L 109.96875 0 L 77.734375 -53.640625 L 76.5 -53.640625 L 44.28125 0 L 6.21875 0 L 55.40625 -78.578125 L 7.140625 -157.15625 Z M 44.8125 -157.15625 "/></g></g></g></svg>