<svg xmlns="http://www.w3.org/2000/svg" xmlns:xlink="http://www.w3.org/1999/xlink" width="2048" zoomAndPan="magnify" viewBox="0 0 1536 525.000007" height="700" preserveAspectRatio="xMidYMid meet" version="1.0"><defs><g/></defs><g fill="#ffffff" fill-opacity="1"><g transform="translate(45.993855, 370.431056)"><g><path d="M 200.390625 -217.03125 L 200.390625 0 L 160.765625 0 L 66.34375 -136.59375 L 64.75 -136.59375 L 64.75 0 L 18.859375 0 L 18.859375 -217.03125 L 59.140625 -217.03125 L 152.8125 -80.546875 L 154.71875 -80.546875 L 154.71875 -217.03125 Z M 200.390625 -217.03125 "/></g></g></g><g fill="#ffffff" fill-opacity="1"><g transform="translate(265.357999, 370.431056)"><g><path d="M 18.859375 0 L 18.859375 -217.03125 L 165.109375 -217.03125 L 165.109375 -179.203125 L 64.75 -179.203125 L 64.75 -127.484375 L 157.578125 -127.484375 L 157.578125 -89.65625 L 64.75 -89.65625 L 64.75 -37.828125 L 165.53125 -37.828125 L 165.53125 0 Z M 18.859375 0 "/></g></g></g><g fill="#ffffff" fill-opacity="1"><g transform="translate(448.161465, 370.431056)"><g><path d="M 61.890625 -217.03125 L 105.65625 -143.0625 L 107.34375 -143.0625 L 151.328125 -217.03125 L 203.15625 -217.03125 L 136.921875 -108.515625 L 204.640625 0 L 151.859375 0 L 107.34375 -74.078125 L 105.65625 -74.078125 L 61.140625 0 L 8.578125 0 L 76.515625 -108.515625 L 9.859375 -217.03125 Z M 61.890625 -217.03125 "/></g></g></g><g fill="#ffffff" fill-opacity="1"><g transform="translate(661.379212, 370.431056)"><g><path d="M 10.59375 -179.203125 L 10.59375 -217.03125 L 188.84375 -217.03125 L 188.84375 -179.203125 L 122.40625 -179.203125 L 122.40625 0 L 77.046875 0 L 77.046875 -179.203125 Z M 10.59375 -179.203125 "/></g></g></g><g fill="#ffffff" fill-opacity="1"><g transform="translate(860.820451, 370.431056)"><g><path d="M 162.78125 -146.875 C 159.882812 -157.050781 154.53125 -165.015625 146.71875 -170.765625 C 138.914062 -176.523438 129.113281 -179.40625 117.3125 -179.40625 C 100.707031 -179.40625 87.265625 -173.273438 76.984375 -161.015625 C 66.710938 -148.765625 61.578125 -131.335938 61.578125 -108.734375 C 61.578125 -86.054688 66.625 -68.535156 76.71875 -56.171875 C 86.820312 -43.804688 100.492188 -37.625 117.734375 -37.625 C 132.992188 -37.625 144.984375 -41.597656 153.703125 -49.546875 C 162.429688 -57.492188 166.9375 -68.175781 167.21875 -81.59375 L 120.59375 -81.59375 L 120.59375 -116.140625 L 211.421875 -116.140625 L 211.421875 -88.8125 C 211.421875 -69.800781 207.390625 -53.425781 199.328125 -39.6875 C 191.273438 -25.945312 180.203125 -15.398438 166.109375 -8.046875 C 152.015625 -0.703125 135.820312 2.96875 117.53125 2.96875 C 97.175781 2.96875 79.296875 -1.535156 63.890625 -10.546875 C 48.492188 -19.554688 36.503906 -32.378906 27.921875 -49.015625 C 19.335938 -65.648438 15.046875 -85.414062 15.046875 -108.3125 C 15.046875 -131.757812 19.53125 -151.820312 28.5 -168.5 C 37.476562 -185.175781 49.628906 -197.925781 64.953125 -206.75 C 80.285156 -215.582031 97.492188 -220 116.578125 -220 C 132.960938 -220 147.796875 -216.890625 161.078125 -210.671875 C 174.359375 -204.453125 185.238281 -195.847656 193.71875 -184.859375 C 202.195312 -173.878906 207.425781 -161.21875 209.40625 -146.875 Z M 162.78125 -146.875 "/></g></g></g><g fill="#ffffff" fill-opacity="1"><g transform="translate(1087.814644, 370.431056)"><g><path d="M 18.859375 0 L 18.859375 -217.03125 L 165.109375 -217.03125 L 165.109375 -179.203125 L 64.75 -179.203125 L 64.75 -127.484375 L 157.578125 -127.484375 L 157.578125 -89.65625 L 64.75 -89.65625 L 64.75 -37.828125 L 165.53125 -37.828125 L 165.53125 0 Z M 18.859375 0 "/></g></g></g><g fill="#ffffff" fill-opacity="1"><g transform="translate(1270.618111, 370.431056)"><g><path d="M 200.390625 -217.03125 L 200.390625 0 L 160.765625 0 L 66.34375 -136.59375 L 64.75 -136.59375 L 64.75 0 L 18.859375 0 L 18.859375 -217.03125 L 59.140625 -217.03125 L 152.8125 -80.546875 L 154.71875 -80.546875 L 154.71875 -217.03125 Z M 200.390625 -217.03125 "/></g></g></g></svg>