<svg xmlns="http://www.w3.org/2000/svg" xmlns:xlink="http://www.w3.org/1999/xlink" width="2048" zoomAndPan="magnify" viewBox="0 0 1536 525.000007" height="700" preserveAspectRatio="xMidYMid meet" version="1.0"><defs><g/></defs><g fill="#ffffff" fill-opacity="1"><g transform="translate(8.665092, 332.586635)"><g><path d="M 142.203125 -70.6875 C 142.203125 -55.269531 139.289062 -42.15625 133.46875 -31.34375 C 127.644531 -20.53125 119.738281 -12.28125 109.75 -6.59375 C 99.769531 -0.90625 88.519531 1.9375 76 1.9375 C 63.4375 1.9375 52.160156 -0.914062 42.171875 -6.625 C 32.191406 -12.332031 24.300781 -20.601562 18.5 -31.4375 C 12.695312 -42.28125 9.796875 -55.363281 9.796875 -70.6875 C 9.796875 -86.101562 12.695312 -99.21875 18.5 -110.03125 C 24.300781 -120.84375 32.191406 -129.09375 42.171875 -134.78125 C 52.160156 -140.46875 63.4375 -143.3125 76 -143.3125 C 88.519531 -143.3125 99.769531 -140.46875 109.75 -134.78125 C 119.738281 -129.09375 127.644531 -120.84375 133.46875 -110.03125 C 139.289062 -99.21875 142.203125 -86.101562 142.203125 -70.6875 Z M 111.90625 -70.6875 C 111.90625 -85.6875 108.632812 -97.132812 102.09375 -105.03125 C 95.5625 -112.925781 86.863281 -116.875 76 -116.875 C 65.144531 -116.875 56.445312 -112.925781 49.90625 -105.03125 C 43.375 -97.132812 40.109375 -85.6875 40.109375 -70.6875 C 40.109375 -55.726562 43.375 -44.289062 49.90625 -36.375 C 56.445312 -28.457031 65.144531 -24.5 76 -24.5 C 86.863281 -24.5 95.5625 -28.457031 102.09375 -36.375 C 108.632812 -44.289062 111.90625 -55.726562 111.90625 -70.6875 Z M 111.90625 -70.6875 "/></g></g></g><g fill="#ffffff" fill-opacity="1"><g transform="translate(160.675853, 332.586635)"><g><path d="M 12.28125 0 L 12.28125 -141.375 L 68.0625 -141.375 C 78.789062 -141.375 87.925781 -139.335938 95.46875 -135.265625 C 103.019531 -131.191406 108.785156 -125.550781 112.765625 -118.34375 C 116.742188 -111.144531 118.734375 -102.851562 118.734375 -93.46875 C 118.734375 -84.082031 116.707031 -75.8125 112.65625 -68.65625 C 108.601562 -61.5 102.742188 -55.90625 95.078125 -51.875 C 87.421875 -47.851562 78.164062 -45.84375 67.3125 -45.84375 L 42.171875 -45.84375 L 42.171875 0 Z M 42.171875 -69.796875 L 62.46875 -69.796875 C 71.03125 -69.796875 77.414062 -71.988281 81.625 -76.375 C 85.832031 -80.769531 87.9375 -86.46875 87.9375 -93.46875 C 87.9375 -100.507812 85.832031 -106.179688 81.625 -110.484375 C 77.414062 -114.785156 70.984375 -116.9375 62.328125 -116.9375 L 42.171875 -116.9375 Z M 42.171875 -69.796875 "/></g></g></g><g fill="#ffffff" fill-opacity="1"><g transform="translate(286.592129, 332.586635)"><g><path d="M 12.28125 0 L 12.28125 -141.375 L 107.546875 -141.375 L 107.546875 -116.734375 L 42.171875 -116.734375 L 42.171875 -83.046875 L 102.65625 -83.046875 L 102.65625 -58.40625 L 42.171875 -58.40625 L 42.171875 -24.640625 L 107.828125 -24.640625 L 107.828125 0 Z M 12.28125 0 "/></g></g></g><g fill="#ffffff" fill-opacity="1"><g transform="translate(405.674149, 332.586635)"><g><path d="M 12.28125 0 L 12.28125 -141.375 L 68.0625 -141.375 C 84.125 -141.375 96.582031 -137.1875 105.4375 -128.8125 C 114.300781 -120.4375 118.734375 -109.226562 118.734375 -95.1875 C 118.734375 -85.53125 116.582031 -77.269531 112.28125 -70.40625 C 107.976562 -63.550781 101.800781 -58.398438 93.75 -54.953125 L 123.765625 0 L 90.78125 0 L 63.984375 -50.109375 L 42.171875 -50.109375 L 42.171875 0 Z M 42.171875 -74.140625 L 62.46875 -74.140625 C 79.445312 -74.140625 87.9375 -81.15625 87.9375 -95.1875 C 87.9375 -109.6875 79.398438 -116.9375 62.328125 -116.9375 L 42.171875 -116.9375 Z M 42.171875 -74.140625 "/></g></g></g><g fill="#ffffff" fill-opacity="1"><g transform="translate(533.247191, 332.586635)"><g><path d="M 36.65625 0 L 4.625 0 L 53.4375 -141.375 L 91.953125 -141.375 L 140.6875 0 L 108.65625 0 L 98.15625 -32.234375 L 47.140625 -32.234375 Z M 54.734375 -55.5625 L 90.640625 -55.5625 L 73.234375 -109.0625 L 72.140625 -109.0625 Z M 54.734375 -55.5625 "/></g></g></g><g fill="#ffffff" fill-opacity="1"><g transform="translate(678.630758, 332.586635)"><g><path d="M 130.53125 -141.375 L 130.53125 0 L 104.71875 0 L 43.21875 -88.984375 L 42.171875 -88.984375 L 42.171875 0 L 12.28125 0 L 12.28125 -141.375 L 38.515625 -141.375 L 99.546875 -52.46875 L 100.78125 -52.46875 L 100.78125 -141.375 Z M 130.53125 -141.375 "/></g></g></g><g fill="#ffffff" fill-opacity="1"><g transform="translate(821.529142, 332.586635)"><g><path d="M 6.90625 -116.734375 L 6.90625 -141.375 L 123.015625 -141.375 L 123.015625 -116.734375 L 79.734375 -116.734375 L 79.734375 0 L 50.1875 0 L 50.1875 -116.734375 Z M 6.90625 -116.734375 "/></g></g></g><g fill="#ffffff" fill-opacity="1"><g transform="translate(951.449331, 332.586635)"><g/></g></g><g fill="#ffffff" fill-opacity="1"><g transform="translate(996.527895, 332.586635)"><g><path d="M 130.53125 -141.375 L 130.53125 0 L 104.71875 0 L 43.21875 -88.984375 L 42.171875 -88.984375 L 42.171875 0 L 12.28125 0 L 12.28125 -141.375 L 38.515625 -141.375 L 99.546875 -52.46875 L 100.78125 -52.46875 L 100.78125 -141.375 Z M 130.53125 -141.375 "/></g></g></g><g fill="#ffffff" fill-opacity="1"><g transform="translate(1139.42633, 332.586635)"><g><path d="M 12.28125 0 L 12.28125 -141.375 L 107.546875 -141.375 L 107.546875 -116.734375 L 42.171875 -116.734375 L 42.171875 -83.046875 L 102.65625 -83.046875 L 102.65625 -58.40625 L 42.171875 -58.40625 L 42.171875 -24.640625 L 107.828125 -24.640625 L 107.828125 0 Z M 12.28125 0 "/></g></g></g><g fill="#ffffff" fill-opacity="1"><g transform="translate(1258.508372, 332.586635)"><g><path d="M 40.3125 -141.375 L 68.828125 -93.1875 L 69.921875 -93.1875 L 98.578125 -141.375 L 132.328125 -141.375 L 89.1875 -70.6875 L 133.296875 0 L 98.921875 0 L 69.921875 -48.25 L 68.828125 -48.25 L 39.828125 0 L 5.59375 0 L 49.84375 -70.6875 L 6.421875 -141.375 Z M 40.3125 -141.375 "/></g></g></g><g fill="#ffffff" fill-opacity="1"><g transform="translate(1397.402865, 332.586635)"><g><path d="M 6.90625 -116.734375 L 6.90625 -141.375 L 123.015625 -141.375 L 123.015625 -116.734375 L 79.734375 -116.734375 L 79.734375 0 L 50.1875 0 L 50.1875 -116.734375 Z M 6.90625 -116.734375 "/></g></g></g></svg>