<svg xmlns="http://www.w3.org/2000/svg" xmlns:xlink="http://www.w3.org/1999/xlink" width="2048" zoomAndPan="magnify" viewBox="0 0 1536 525.000007" height="700" preserveAspectRatio="xMidYMid meet" version="1.0"><defs><g/></defs><g fill="#ffffff" fill-opacity="1"><g transform="translate(44.348041, 370.431056)"><g><path d="M 218.3125 -108.515625 C 218.3125 -84.847656 213.84375 -64.710938 204.90625 -48.109375 C 195.96875 -31.503906 183.832031 -18.835938 168.5 -10.109375 C 153.164062 -1.390625 135.890625 2.96875 116.671875 2.96875 C 97.390625 2.96875 80.082031 -1.410156 64.75 -10.171875 C 49.414062 -18.929688 37.296875 -31.628906 28.390625 -48.265625 C 19.492188 -64.910156 15.046875 -84.992188 15.046875 -108.515625 C 15.046875 -132.179688 19.492188 -152.316406 28.390625 -168.921875 C 37.296875 -185.523438 49.414062 -198.1875 64.75 -206.90625 C 80.082031 -215.632812 97.390625 -220 116.671875 -220 C 135.890625 -220 153.164062 -215.632812 168.5 -206.90625 C 183.832031 -198.1875 195.96875 -185.523438 204.90625 -168.921875 C 213.84375 -152.316406 218.3125 -132.179688 218.3125 -108.515625 Z M 171.78125 -108.515625 C 171.78125 -131.546875 166.765625 -149.117188 156.734375 -161.234375 C 146.703125 -173.347656 133.347656 -179.40625 116.671875 -179.40625 C 100.003906 -179.40625 86.65625 -173.347656 76.625 -161.234375 C 66.59375 -149.117188 61.578125 -131.546875 61.578125 -108.515625 C 61.578125 -85.554688 66.59375 -68 76.625 -55.84375 C 86.65625 -43.695312 100.003906 -37.625 116.671875 -37.625 C 133.347656 -37.625 146.703125 -43.695312 156.734375 -55.84375 C 166.765625 -68 171.78125 -85.554688 171.78125 -108.515625 Z M 171.78125 -108.515625 "/></g></g></g><g fill="#ffffff" fill-opacity="1"><g transform="translate(277.700627, 370.431056)"><g><path d="M 18.859375 0 L 18.859375 -217.03125 L 104.484375 -217.03125 C 120.953125 -217.03125 134.976562 -213.90625 146.5625 -207.65625 C 158.144531 -201.40625 166.992188 -192.75 173.109375 -181.6875 C 179.222656 -170.632812 182.28125 -157.898438 182.28125 -143.484375 C 182.28125 -129.078125 179.171875 -116.378906 172.953125 -105.390625 C 166.734375 -94.398438 157.738281 -85.8125 145.96875 -79.625 C 134.207031 -73.445312 119.992188 -70.359375 103.328125 -70.359375 L 64.75 -70.359375 L 64.75 0 Z M 64.75 -107.140625 L 95.90625 -107.140625 C 109.050781 -107.140625 118.851562 -110.507812 125.3125 -117.25 C 131.78125 -124 135.015625 -132.742188 135.015625 -143.484375 C 135.015625 -154.296875 131.78125 -163.003906 125.3125 -169.609375 C 118.851562 -176.210938 108.976562 -179.515625 95.6875 -179.515625 L 64.75 -179.515625 Z M 64.75 -107.140625 "/></g></g></g><g fill="#ffffff" fill-opacity="1"><g transform="translate(470.995429, 370.431056)"><g><path d="M 18.859375 0 L 18.859375 -217.03125 L 165.109375 -217.03125 L 165.109375 -179.203125 L 64.75 -179.203125 L 64.75 -127.484375 L 157.578125 -127.484375 L 157.578125 -89.65625 L 64.75 -89.65625 L 64.75 -37.828125 L 165.53125 -37.828125 L 165.53125 0 Z M 18.859375 0 "/></g></g></g><g fill="#ffffff" fill-opacity="1"><g transform="translate(653.798895, 370.431056)"><g><path d="M 18.859375 0 L 18.859375 -217.03125 L 104.484375 -217.03125 C 129.140625 -217.03125 148.269531 -210.597656 161.875 -197.734375 C 175.476562 -184.878906 182.28125 -167.679688 182.28125 -146.140625 C 182.28125 -131.304688 178.972656 -118.625 172.359375 -108.09375 C 165.753906 -97.5625 156.269531 -89.648438 143.90625 -84.359375 L 190.015625 0 L 139.359375 0 L 98.234375 -76.9375 L 64.75 -76.9375 L 64.75 0 Z M 64.75 -113.8125 L 95.90625 -113.8125 C 121.976562 -113.8125 135.015625 -124.585938 135.015625 -146.140625 C 135.015625 -168.390625 121.90625 -179.515625 95.6875 -179.515625 L 64.75 -179.515625 Z M 64.75 -113.8125 "/></g></g></g><g fill="#ffffff" fill-opacity="1"><g transform="translate(849.637012, 370.431056)"><g><path d="M 56.265625 0 L 7.09375 0 L 82.03125 -217.03125 L 141.15625 -217.03125 L 215.96875 0 L 166.796875 0 L 150.6875 -49.484375 L 72.375 -49.484375 Z M 84.03125 -85.3125 L 139.140625 -85.3125 L 112.4375 -167.4375 L 110.75 -167.4375 Z M 84.03125 -85.3125 "/></g></g></g><g fill="#ffffff" fill-opacity="1"><g transform="translate(1072.81618, 370.431056)"><g><path d="M 200.390625 -217.03125 L 200.390625 0 L 160.765625 0 L 66.34375 -136.59375 L 64.75 -136.59375 L 64.75 0 L 18.859375 0 L 18.859375 -217.03125 L 59.140625 -217.03125 L 152.8125 -80.546875 L 154.71875 -80.546875 L 154.71875 -217.03125 Z M 200.390625 -217.03125 "/></g></g></g><g fill="#ffffff" fill-opacity="1"><g transform="translate(1292.180323, 370.431056)"><g><path d="M 10.59375 -179.203125 L 10.59375 -217.03125 L 188.84375 -217.03125 L 188.84375 -179.203125 L 122.40625 -179.203125 L 122.40625 0 L 77.046875 0 L 77.046875 -179.203125 Z M 10.59375 -179.203125 "/></g></g></g></svg>